<svg width="48" height="48" viewBox="0 0 48 48" fill="none" xmlns="http://www.w3.org/2000/svg">
    <circle cx="24" cy="24" r="24" fill="black"/>
    <path d="M36.375 31.5H12.625C12.2797 31.5 12 31.7797 12 32.125V33.375C12 33.7203 12.2797 34 12.625 34H36.375C36.7203 34 37 33.7203 37 33.375V32.125C37 31.7797 36.7203 31.5 36.375 31.5ZM13.7504 22.0336L17.2168 25.1586C17.5012 25.4155 17.842 25.6018 18.2117 25.7028L29.4461 28.7633C30.4805 29.045 31.5773 29.1039 32.6102 28.8164C33.7691 28.4934 34.307 27.9879 34.4559 27.4215C34.6055 26.8551 34.3883 26.1438 33.543 25.2746C32.7898 24.5004 31.8105 23.9938 30.7762 23.7121L26.9672 22.6746L23.0469 15.1805C22.9879 14.9535 22.8145 14.7762 22.5914 14.7153L20.0488 14.0227C19.6363 13.9102 19.2324 14.2305 19.2398 14.6649L21.1117 21.0793L17.1195 19.9918L16.0418 17.3403C15.9664 17.1492 15.807 17.0055 15.6113 16.9524L14.0594 16.5293C13.6555 16.4192 13.2574 16.7246 13.25 17.1496L13.259 21.1254C13.2664 21.4735 13.4945 21.8028 13.7504 22.0336Z" fill="white"/>
    </svg>
    