<svg width="56" height="56" viewBox="0 0 56 56" fill="none" xmlns="http://www.w3.org/2000/svg">
<g filter="url(#filter0_d_42_1928)">
<circle cx="28" cy="24" r="24" fill="black"/>
<path d="M40.375 31.5H16.625C16.2797 31.5 16 31.7797 16 32.125V33.375C16 33.7203 16.2797 34 16.625 34H40.375C40.7203 34 41 33.7203 41 33.375V32.125C41 31.7797 40.7203 31.5 40.375 31.5ZM17.7504 22.0336L21.2168 25.1586C21.5012 25.4155 21.842 25.6018 22.2117 25.7028L33.4461 28.7633C34.4805 29.045 35.5773 29.1039 36.6102 28.8164C37.7691 28.4934 38.307 27.9879 38.4559 27.4215C38.6055 26.8551 38.3883 26.1438 37.543 25.2746C36.7898 24.5004 35.8105 23.9938 34.7762 23.7121L30.9672 22.6746L27.0469 15.1805C26.9879 14.9535 26.8145 14.7762 26.5914 14.7153L24.0488 14.0227C23.6363 13.9102 23.2324 14.2305 23.2398 14.6649L25.1117 21.0793L21.1195 19.9918L20.0418 17.3403C19.9664 17.1492 19.807 17.0055 19.6113 16.9524L18.0594 16.5293C17.6555 16.4192 17.2574 16.7246 17.25 17.1496L17.259 21.1254C17.2664 21.4735 17.4945 21.8028 17.7504 22.0336Z" fill="white"/>
</g>
<defs>
<filter id="filter0_d_42_1928" x="0" y="0" width="56" height="56" filterUnits="userSpaceOnUse" color-interpolation-filters="sRGB">
<feFlood flood-opacity="0" result="BackgroundImageFix"/>
<feColorMatrix in="SourceAlpha" type="matrix" values="0 0 0 0 0 0 0 0 0 0 0 0 0 0 0 0 0 0 127 0" result="hardAlpha"/>
<feOffset dy="4"/>
<feGaussianBlur stdDeviation="2"/>
<feComposite in2="hardAlpha" operator="out"/>
<feColorMatrix type="matrix" values="0 0 0 0 0 0 0 0 0 0 0 0 0 0 0 0 0 0 0.25 0"/>
<feBlend mode="normal" in2="BackgroundImageFix" result="effect1_dropShadow_42_1928"/>
<feBlend mode="normal" in="SourceGraphic" in2="effect1_dropShadow_42_1928" result="shape"/>
</filter>
</defs>
</svg>
