<svg width="24" height="16" viewBox="0 0 24 16" fill="none" xmlns="http://www.w3.org/2000/svg">
<path d="M0 0.799805H23.2V15.9998H0V0.799805ZM11.6 4.5998C12.6255 4.5998 13.609 5.00016 14.3341 5.7128C15.0593 6.42544 15.4667 7.39198 15.4667 8.3998C15.4667 9.40763 15.0593 10.3742 14.3341 11.0868C13.609 11.7994 12.6255 12.1998 11.6 12.1998C10.5745 12.1998 9.59099 11.7994 8.86585 11.0868C8.14071 10.3742 7.73333 9.40763 7.73333 8.3998C7.73333 7.39198 8.14071 6.42544 8.86585 5.7128C9.59099 5.00016 10.5745 4.5998 11.6 4.5998ZM5.15556 3.33314C5.15556 4.00502 4.88397 4.64938 4.40054 5.12447C3.91711 5.59957 3.26145 5.86647 2.57778 5.86647V10.9331C3.26145 10.9331 3.91711 11.2 4.40054 11.6751C4.88397 12.1502 5.15556 12.7946 5.15556 13.4665H18.0444C18.0444 12.7946 18.316 12.1502 18.7995 11.6751C19.2829 11.2 19.9386 10.9331 20.6222 10.9331V5.86647C19.9386 5.86647 19.2829 5.59957 18.7995 5.12447C18.316 4.64938 18.0444 4.00502 18.0444 3.33314H5.15556Z" fill="black"/>
</svg>
