<svg width="48" height="48" viewBox="0 0 48 48" fill="none" xmlns="http://www.w3.org/2000/svg">
    <circle cx="24" cy="24" r="24" fill="black"/>
    <path d="M35.3751 31.2503H11.6251C11.2798 31.2503 11.0001 31.53 11.0001 31.8753V33.1253C11.0001 33.4706 11.2798 33.7503 11.6251 33.7503H35.3751C35.7204 33.7503 36.0001 33.4706 36.0001 33.1253V31.8753C36.0001 31.53 35.7204 31.2503 35.3751 31.2503ZM14.1466 27.0811C14.3919 27.3483 14.7364 27.4999 15.097 27.4995L20.1962 27.4925C20.5986 27.4919 20.9953 27.3967 21.354 27.2143L32.7196 21.4468C33.7642 20.9167 34.7005 20.16 35.3376 19.169C36.0528 18.0565 36.1306 17.2515 35.8482 16.6827C35.5665 16.1136 34.8818 15.6956 33.5728 15.6104C32.4068 15.5347 31.247 15.8417 30.2025 16.3714L26.3544 18.3241L17.8114 15.1186C17.7087 15.0494 17.5894 15.0089 17.4658 15.0013C17.3422 14.9937 17.2188 15.0192 17.1083 15.0753L14.54 16.3788C14.1232 16.5901 14.0224 17.1464 14.338 17.4933L20.4403 21.3253L16.4087 23.3714L13.5825 21.9468C13.4852 21.8977 13.3776 21.8722 13.2686 21.8723C13.1595 21.8724 13.052 21.8982 12.9548 21.9475L11.3872 22.7433C10.9794 22.9503 10.872 23.4901 11.1696 23.8401L14.1466 27.0811Z" fill="white"/>
    </svg>
    