<svg width="56" height="56" viewBox="0 0 56 56" fill="none" xmlns="http://www.w3.org/2000/svg">
<g filter="url(#filter0_d_42_1920)">
<circle cx="28" cy="24" r="24" fill="black"/>
<path d="M39.3751 31.2503H15.6251C15.2798 31.2503 15.0001 31.53 15.0001 31.8753V33.1253C15.0001 33.4706 15.2798 33.7503 15.6251 33.7503H39.3751C39.7204 33.7503 40.0001 33.4706 40.0001 33.1253V31.8753C40.0001 31.53 39.7204 31.2503 39.3751 31.2503ZM18.1466 27.0811C18.3919 27.3483 18.7364 27.4999 19.097 27.4995L24.1962 27.4925C24.5986 27.4919 24.9953 27.3967 25.354 27.2143L36.7196 21.4468C37.7642 20.9167 38.7005 20.16 39.3376 19.169C40.0528 18.0565 40.1306 17.2515 39.8482 16.6827C39.5665 16.1136 38.8818 15.6956 37.5728 15.6104C36.4068 15.5347 35.247 15.8417 34.2025 16.3714L30.3544 18.3241L21.8114 15.1186C21.7087 15.0494 21.5894 15.0089 21.4658 15.0013C21.3422 14.9937 21.2188 15.0192 21.1083 15.0753L18.54 16.3788C18.1232 16.5901 18.0224 17.1464 18.338 17.4933L24.4403 21.3253L20.4087 23.3714L17.5825 21.9468C17.4852 21.8977 17.3776 21.8722 17.2686 21.8723C17.1595 21.8724 17.052 21.8982 16.9548 21.9475L15.3872 22.7433C14.9794 22.9503 14.872 23.4901 15.1696 23.8401L18.1466 27.0811Z" fill="white"/>
</g>
<defs>
<filter id="filter0_d_42_1920" x="0" y="0" width="56" height="56" filterUnits="userSpaceOnUse" color-interpolation-filters="sRGB">
<feFlood flood-opacity="0" result="BackgroundImageFix"/>
<feColorMatrix in="SourceAlpha" type="matrix" values="0 0 0 0 0 0 0 0 0 0 0 0 0 0 0 0 0 0 127 0" result="hardAlpha"/>
<feOffset dy="4"/>
<feGaussianBlur stdDeviation="2"/>
<feComposite in2="hardAlpha" operator="out"/>
<feColorMatrix type="matrix" values="0 0 0 0 0 0 0 0 0 0 0 0 0 0 0 0 0 0 0.25 0"/>
<feBlend mode="normal" in2="BackgroundImageFix" result="effect1_dropShadow_42_1920"/>
<feBlend mode="normal" in="SourceGraphic" in2="effect1_dropShadow_42_1920" result="shape"/>
</filter>
</defs>
</svg>
