<svg width="19" height="24" viewBox="0 0 19 24" fill="none" xmlns="http://www.w3.org/2000/svg">
<path d="M8.0047 11.6745C8.56186 13.1522 8.50259 14.6901 6.8311 15.3028C3.39328 16.5883 2.62273 13.2123 2.57531 13.0441L8.0047 11.6745ZM2.04186 10.7013L7.16302 9.41576C6.93779 8.15426 7.28157 6.89276 7.28157 5.40298C7.28157 3.38457 5.70491 -0.568143 3.19175 0.0686166C0.32295 0.789476 -0.0919591 4.02133 0.0147318 5.58319C0.156986 7.14506 1.95888 10.485 2.04186 10.7013ZM16.4333 21.4421C16.3977 21.6223 15.6153 24.9863 12.1775 23.7128C10.5179 23.0881 10.4467 21.5502 11.0039 20.0725L16.4333 21.4421ZM18.982 13.9932C19.1006 12.4314 18.6975 9.18749 15.8168 8.46663C13.3155 7.80584 11.7389 11.7826 11.7389 13.813C11.7389 15.2908 12.0708 16.5523 11.8693 17.8138L16.9667 19.0993C17.0616 18.8831 18.8516 15.5431 18.982 13.9932Z" fill="black"/>
</svg>
