<svg width="22" height="22" viewBox="0 0 22 22" fill="none" xmlns="http://www.w3.org/2000/svg">
<path d="M11 22C9.47833 22 8.04833 21.7111 6.71 21.1332C5.37167 20.5553 4.2075 19.7718 3.2175 18.7825C2.2275 17.7932 1.44393 16.6291 0.866801 15.29C0.289668 13.9509 0.000734725 12.5209 1.3924e-06 11C-0.00073194 9.47906 0.288201 8.04906 0.866801 6.71C1.4454 5.37093 2.22897 4.20677 3.2175 3.2175C4.20603 2.22823 5.3702 1.44467 6.71 0.8668C8.0498 0.288933 9.4798 0 11 0C12.5202 0 13.9502 0.288933 15.29 0.8668C16.6298 1.44467 17.794 2.22823 18.7825 3.2175C19.771 4.20677 20.555 5.37093 21.1343 6.71C21.7136 8.04906 22.0022 9.47906 22 11C21.9978 12.5209 21.7089 13.9509 21.1332 15.29C20.5575 16.6291 19.774 17.7932 18.7825 18.7825C17.791 19.7718 16.6269 20.5557 15.29 21.1343C13.9531 21.7129 12.5231 22.0015 11 22ZM11 19.8C13.4567 19.8 15.5375 18.9475 17.2425 17.2425C18.9475 15.5375 19.8 13.4567 19.8 11C19.8 10.8717 19.7956 10.7386 19.7868 10.6007C19.778 10.4628 19.7732 10.3484 19.7725 10.2575C19.6808 10.7892 19.4333 11.2292 19.03 11.5775C18.6267 11.9258 18.15 12.1 17.6 12.1H15.4C14.795 12.1 14.2773 11.8848 13.8468 11.4543C13.4163 11.0238 13.2007 10.5057 13.2 9.9V8.8H8.8V6.6C8.8 5.995 9.0156 5.47726 9.4468 5.0468C9.878 4.61633 10.3957 4.40073 11 4.4H12.1C12.1 3.97833 12.2148 3.60727 12.4443 3.2868C12.6738 2.96633 12.9532 2.7049 13.2825 2.5025C12.9158 2.41083 12.5448 2.3375 12.1693 2.2825C11.7938 2.2275 11.4041 2.2 11 2.2C8.54333 2.2 6.4625 3.0525 4.7575 4.7575C3.0525 6.4625 2.2 8.54333 2.2 11H7.7C8.91 11 9.94583 11.4308 10.8075 12.2925C11.6692 13.1542 12.1 14.19 12.1 15.4V16.5H8.8V19.525C9.16666 19.6167 9.52893 19.6856 9.8868 19.7318C10.2447 19.778 10.6157 19.8007 11 19.8Z" fill="black"/>
</svg>
