<svg width="24" height="24" viewBox="0 0 24 24" fill="none" xmlns="http://www.w3.org/2000/svg">
<path fill-rule="evenodd" clip-rule="evenodd" d="M10.2625 23.1839C4.48572 22.5186 0 17.6002 0 11.6303C0 5.2069 5.19332 0 11.6 0C18.0067 0 23.2 5.2069 23.2 11.6303C23.2 17.6281 19.3917 17.135 16.1402 16.7128C14.2634 16.4697 12.5732 16.2511 11.9039 17.3152C11.4457 18.0433 11.941 18.9505 12.5477 19.5587C12.7279 19.7394 12.8709 19.9539 12.9684 20.19C13.0659 20.426 13.1161 20.6791 13.1161 20.9346C13.1161 21.1901 13.0659 21.4431 12.9684 21.6792C12.8709 21.9153 12.7279 22.1298 12.5477 22.3105C11.941 22.9187 11.1151 23.2827 10.2625 23.1839ZM10.5386 5.81516C10.5386 6.27785 10.3553 6.72158 10.029 7.04875C9.70265 7.37591 9.26008 7.55971 8.7986 7.55971C8.33712 7.55971 7.89455 7.37591 7.56823 7.04875C7.24192 6.72158 7.0586 6.27785 7.0586 5.81516C7.0586 5.35248 7.24192 4.90875 7.56823 4.58158C7.89455 4.25441 8.33712 4.07061 8.7986 4.07061C9.26008 4.07061 9.70265 4.25441 10.029 4.58158C10.3553 4.90875 10.5386 5.35248 10.5386 5.81516ZM5.22 12.7934C5.68148 12.7934 6.12405 12.6096 6.45037 12.2824C6.77668 11.9552 6.96 11.5115 6.96 11.0488C6.96 10.5861 6.77668 10.1424 6.45037 9.81523C6.12405 9.48806 5.68148 9.30426 5.22 9.30426C4.75852 9.30426 4.31595 9.48806 3.98963 9.81523C3.66332 10.1424 3.48 10.5861 3.48 11.0488C3.48 11.5115 3.66332 11.9552 3.98963 12.2824C4.31595 12.6096 4.75852 12.7934 5.22 12.7934ZM17.98 12.7934C18.4415 12.7934 18.8841 12.6096 19.2104 12.2824C19.5367 11.9552 19.72 11.5115 19.72 11.0488C19.72 10.5861 19.5367 10.1424 19.2104 9.81523C18.8841 9.48806 18.4415 9.30426 17.98 9.30426C17.5185 9.30426 17.0759 9.48806 16.7496 9.81523C16.4233 10.1424 16.24 10.5861 16.24 11.0488C16.24 11.5115 16.4233 11.9552 16.7496 12.2824C17.0759 12.6096 17.5185 12.7934 17.98 12.7934ZM14.5 7.55971C14.7285 7.55971 14.9548 7.51459 15.1659 7.42692C15.377 7.33924 15.5688 7.21074 15.7304 7.04875C15.8919 6.88675 16.0201 6.69443 16.1076 6.48277C16.195 6.27111 16.24 6.04426 16.24 5.81516C16.24 5.58607 16.195 5.35921 16.1076 5.14755C16.0201 4.93589 15.8919 4.74358 15.7304 4.58158C15.5688 4.41958 15.377 4.29108 15.1659 4.20341C14.9548 4.11574 14.7285 4.07061 14.5 4.07061C14.0385 4.07061 13.5959 4.25441 13.2696 4.58158C12.9433 4.90875 12.76 5.35248 12.76 5.81516C12.76 6.27785 12.9433 6.72158 13.2696 7.04875C13.5959 7.37591 14.0385 7.55971 14.5 7.55971Z" fill="black"/>
</svg>
