<svg width="22" height="22" viewBox="0 0 22 22" fill="none" xmlns="http://www.w3.org/2000/svg">
<path d="M11.8 21.4001C11.6931 21.4001 11.5873 21.3788 11.4889 21.3373C11.3904 21.2957 11.3013 21.2349 11.2267 21.1584C11.1521 21.0819 11.0937 20.9912 11.0547 20.8917C11.0158 20.7922 10.9971 20.6859 10.9999 20.5791V11.4065C10.9999 11.3004 10.9578 11.1986 10.8828 11.1236C10.8078 11.0486 10.706 11.0065 10.5999 11.0065H1.42018C1.25192 11.0084 1.08715 10.9583 0.948489 10.863C0.809824 10.7677 0.704046 10.6318 0.645661 10.4739C0.579172 10.2857 0.585445 10.0795 0.66325 9.89564C0.741054 9.71182 0.884768 9.56372 1.06617 9.48043L20.2667 0.672808C20.415 0.604841 20.5806 0.583857 20.7412 0.612671C20.9018 0.641485 21.0498 0.71872 21.1653 0.834016C21.2807 0.949312 21.3582 1.09716 21.3872 1.25772C21.4162 1.41828 21.3955 1.58389 21.3277 1.73232L12.5275 20.9326C12.4638 21.072 12.3613 21.1902 12.2323 21.2731C12.1034 21.356 11.9533 21.4001 11.8 21.4001Z" fill="black"/>
</svg>
