<svg width="20" height="20" viewBox="0 0 20 20" fill="none" xmlns="http://www.w3.org/2000/svg">
<path d="M10 9.9999C8.68002 9.9999 7.55002 9.5299 6.61002 8.5899C5.67002 7.6499 5.20002 6.5199 5.20002 5.1999C5.20002 3.8799 5.67002 2.7499 6.61002 1.8099C7.55002 0.869903 8.68002 0.399902 10 0.399902C11.32 0.399902 12.45 0.869903 13.39 1.8099C14.33 2.7499 14.8 3.8799 14.8 5.1999C14.8 6.5199 14.33 7.6499 13.39 8.5899C12.45 9.5299 11.32 9.9999 10 9.9999ZM0.400024 19.5999V16.2399C0.400024 15.5599 0.575225 14.9351 0.925625 14.3655C1.27602 13.7959 1.74082 13.3607 2.32002 13.0599C3.56002 12.4399 4.82002 11.9751 6.10002 11.6655C7.38002 11.3559 8.68002 11.2007 10 11.1999C11.32 11.1991 12.62 11.3543 13.9 11.6655C15.18 11.9767 16.44 12.4415 17.68 13.0599C18.26 13.3599 18.7252 13.7951 19.0756 14.3655C19.426 14.9359 19.6008 15.5607 19.6 16.2399V19.5999H0.400024Z" fill="black"/>
</svg>
