<svg width="16" height="15" viewBox="0 0 16 15" fill="none" xmlns="http://www.w3.org/2000/svg">
<path d="M14.3333 15L9.08333 9.75C8.66667 10.0833 8.1875 10.3472 7.64583 10.5417C7.10417 10.7361 6.52778 10.8333 5.91667 10.8333C4.40278 10.8333 3.12167 10.3089 2.07333 9.26C1.025 8.21111 0.500556 6.93 0.5 5.41667C0.499445 3.90333 1.02389 2.62222 2.07333 1.57333C3.12278 0.524444 4.40389 0 5.91667 0C7.42944 0 8.71083 0.524444 9.76083 1.57333C10.8108 2.62222 11.335 3.90333 11.3333 5.41667C11.3333 6.02778 11.2361 6.60417 11.0417 7.14583C10.8472 7.6875 10.5833 8.16667 10.25 8.58333L15.5 13.8333L14.3333 15ZM5.91667 9.16667C6.95833 9.16667 7.84389 8.80222 8.57333 8.07333C9.30278 7.34444 9.66722 6.45889 9.66667 5.41667C9.66611 4.37444 9.30167 3.48917 8.57333 2.76083C7.845 2.0325 6.95944 1.66778 5.91667 1.66667C4.87389 1.66556 3.98861 2.03028 3.26083 2.76083C2.53306 3.49139 2.16833 4.37667 2.16667 5.41667C2.165 6.45667 2.52972 7.34222 3.26083 8.07333C3.99195 8.80444 4.87722 9.16889 5.91667 9.16667Z" fill="black" fill-opacity="0.8"/>
</svg>
